<?xml version="1.0" encoding="UTF-8" standalone="no"?>
<!DOCTYPE svg PUBLIC "-//W3C//DTD SVG 1.1//EN" "http://www.w3.org/Graphics/SVG/1.1/DTD/svg11.dtd">
<svg width="100%" height="100%" viewBox="0 0 1000 500" version="1.1" xmlns="http://www.w3.org/2000/svg" xmlns:xlink="http://www.w3.org/1999/xlink" xml:space="preserve" xmlns:serif="http://www.serif.com/" style="fill-rule:evenodd;clip-rule:evenodd;stroke-linejoin:round;stroke-miterlimit:2;">
    <g transform="matrix(1,0,0,1,-5688.41,-3483.07)">
        <g id="Artboard1" transform="matrix(1,0,0,0.5,5688.41,3483.07)">
            <rect x="0" y="0" width="1000" height="1000" style="fill:none;"/>
            <g transform="matrix(1,0,0,2,0.0916786,-418.912)">
                <g transform="matrix(1,0,0,1,-19.0554,9.12062)">
                    <path d="M77.83,579.029L88.247,589.445L127.648,589.445L138.065,579.029L138.065,488C138.065,488 187.553,488 187.553,488C217.955,487.461 240.763,477.419 256.486,458.63C271.736,440.819 279.268,421.019 279.268,399.316C279.268,383.286 276.165,369.409 270.178,357.636C264.276,345.2 256.525,335.68 247.103,328.93C236.172,320.301 225.307,314.669 214.623,311.864L214.021,311.725C203.856,309.692 193.31,308.67 182.382,308.67C182.382,308.67 88.247,308.67 88.247,308.67L77.83,319.087L77.83,579.029ZM138.065,366.765L184.522,366.765C193.239,366.574 200.712,368.408 207.124,372.462L207.48,372.678C211.063,374.748 213.876,377.551 215.907,381.096C218.082,385.772 219.033,391.501 219.033,398.246C219.033,406.26 216.292,413.525 210.941,420.088C205.345,426.738 196.885,429.708 185.88,429.905C185.858,429.905 138.065,429.905 138.065,429.905L138.065,366.765Z" style="fill:rgb(246,194,36);fill-rule:nonzero;"/>
                </g>
                <g transform="matrix(1,0,0,1,-26.0554,9.12062)">
                    <path d="M300.987,449.058C300.987,479.636 301.975,500.304 303.809,511.068C304.898,517.466 306.296,522.765 307.929,526.985L308.086,527.367C309.686,531.06 311.471,534.939 313.441,539.002L313.59,539.297C320.624,552.702 331.799,564.612 347.312,574.838C362.474,585.35 381.36,591.054 404.049,591.582L404.53,591.582C427.488,591.054 446.57,585.336 461.88,574.786C476.907,564.714 487.748,552.981 494.561,539.792C499.5,532.478 503.069,522.899 504.97,510.955C506.571,500.117 507.417,479.524 507.417,449.058C507.417,418.091 506.567,397.368 504.982,386.883C503.062,375.086 499.503,365.635 494.556,358.315C487.76,345.155 476.935,333.315 461.892,322.981C446.561,312.408 427.431,306.796 404.411,306.531C381.391,306.796 362.438,312.407 347.203,322.996C331.883,333.35 320.79,345.25 313.763,358.49C309.372,365.655 305.986,374.983 303.837,386.535C301.981,397.175 300.987,417.975 300.987,449.058ZM361.4,449.058C361.4,424.53 362.215,407.811 364.04,398.913C365.337,392.061 367.793,386.531 371.684,382.278L372.221,381.642C375.506,377.418 379.856,373.941 385.2,371.121C390.538,368.364 396.906,366.988 404.279,366.77C411.796,366.988 418.338,368.372 423.881,371.105C428.919,373.878 432.979,377.281 436.005,381.407L436.72,382.278C440.647,386.57 443.236,392.141 444.713,398.882C446.418,407.857 447.182,424.577 447.182,449.058C447.182,473.516 446.424,490.105 444.726,498.815C443.243,505.822 440.666,511.524 436.72,515.837L436.005,516.708C433.011,520.792 428.981,524.06 423.99,526.6L423.565,526.83C418.133,529.92 411.69,531.35 404.291,531.35C397.085,531.35 390.863,529.958 385.689,526.909L384.993,526.534C379.732,523.95 375.451,520.626 372.221,516.473L371.684,515.837C367.787,511.578 365.349,505.939 364.08,499.052L364.029,498.793C362.206,490.135 361.4,473.552 361.4,449.058Z" style="fill:rgb(246,194,36);fill-rule:nonzero;"/>
                </g>
                <g transform="matrix(1,0,0,1,-25.2353,9.12062)">
                    <path d="M534.235,579.029L544.652,589.445L584.053,589.445L594.47,579.029L594.47,488C594.47,488 643.958,488 643.958,488C674.36,487.461 697.169,477.419 712.891,458.63C728.141,440.819 735.673,421.019 735.673,399.316C735.673,383.286 732.57,369.409 726.583,357.636C720.681,345.2 712.93,335.68 703.508,328.93C692.577,320.301 681.712,314.669 671.028,311.864L670.426,311.725C660.261,309.692 649.715,308.67 638.787,308.67C638.787,308.67 544.652,308.67 544.652,308.67L534.235,319.087L534.235,579.029ZM594.47,366.765L640.927,366.765C649.644,366.574 657.117,368.408 663.529,372.462L663.885,372.678C667.468,374.748 670.281,377.551 672.312,381.096C674.487,385.772 675.438,391.501 675.438,398.246C675.438,406.26 672.697,413.525 667.346,420.088C661.75,426.738 653.29,429.708 642.285,429.905C642.263,429.905 594.47,429.905 594.47,429.905L594.47,366.765Z" style="fill:rgb(246,194,36);fill-rule:nonzero;"/>
                </g>
                <g transform="matrix(1,0,0,1,-29.2388,9.12062)">
                    <path d="M779.987,505.728L765.528,506.923L739.677,536.519L740.737,551.276C770.33,576.677 805.677,589.445 846.827,589.445C879.664,589.053 904.238,581.46 920.953,567.618C938.313,553.242 947.777,532.056 948.523,503.709L948.527,503.435C948.527,482.488 941.951,464.117 928.845,448.304C915.726,432.383 895.639,422.159 868.205,418.412C855.966,416.882 846.396,415.543 839.377,414.375C829.263,412.494 821.736,409.523 817.147,404.652C813.334,400.683 811.283,396.403 811.247,391.6C811.434,382.814 814.149,376.073 820.076,371.649C826.466,366.856 834.48,364.646 844.023,364.626C865.413,365.078 884.993,371.16 902.786,382.877L917.145,380.01L939.074,347.562L936.538,333.281C910.979,314.843 880.932,305.157 846.344,304.394L846.022,304.392C816.076,304.657 793.087,312.875 776.779,328.235C759.599,344.085 750.833,364.882 750.833,390.758C750.833,412.415 757.789,430.775 771.543,445.896C784.598,460.283 803.508,469.826 828.552,473.955C841.204,475.765 852.634,477.364 863.063,478.787C873.254,480.561 880.648,483.85 884.672,489.759C887.146,493.391 888.173,497.919 888.115,503.248C887.727,521.509 873.184,528.821 847.164,529.21C821.21,528.971 798.804,521.193 779.987,505.728Z" style="fill:rgb(246,194,36);fill-rule:nonzero;"/>
                </g>
                <g transform="matrix(1,0,0,1,2.69834,-9.58015)">
                    <path d="M77.83,579.029L88.247,589.445L127.648,589.445L138.065,579.029L138.065,488C138.065,488 187.553,488 187.553,488C217.955,487.461 240.763,477.419 256.486,458.63C271.736,440.819 279.268,421.019 279.268,399.316C279.268,383.286 276.165,369.409 270.178,357.636C264.276,345.2 256.525,335.68 247.103,328.93C236.172,320.301 225.307,314.669 214.623,311.864L214.021,311.725C203.856,309.692 193.31,308.67 182.382,308.67C182.382,308.67 88.247,308.67 88.247,308.67L77.83,319.087L77.83,579.029ZM138.065,366.765L184.522,366.765C193.239,366.574 200.712,368.408 207.124,372.462L207.48,372.678C211.063,374.748 213.876,377.551 215.907,381.096C218.082,385.772 219.033,391.501 219.033,398.246C219.033,406.26 216.292,413.525 210.941,420.088C205.345,426.738 196.885,429.708 185.88,429.905C185.858,429.905 138.065,429.905 138.065,429.905L138.065,366.765Z" style="fill:rgb(31,91,217);fill-rule:nonzero;"/>
                </g>
                <g transform="matrix(1,0,0,1,-4.30166,-9.58015)">
                    <path d="M300.987,449.058C300.987,479.636 301.975,500.304 303.809,511.068C304.898,517.466 306.296,522.765 307.929,526.985L308.086,527.367C309.686,531.06 311.471,534.939 313.441,539.002L313.59,539.297C320.624,552.702 331.799,564.612 347.312,574.838C362.474,585.35 381.36,591.054 404.049,591.582L404.53,591.582C427.488,591.054 446.57,585.336 461.88,574.786C476.907,564.714 487.748,552.981 494.561,539.792C499.5,532.478 503.069,522.899 504.97,510.955C506.571,500.117 507.417,479.524 507.417,449.058C507.417,418.091 506.567,397.368 504.982,386.883C503.062,375.086 499.503,365.635 494.556,358.315C487.76,345.155 476.935,333.315 461.892,322.981C446.561,312.408 427.431,306.796 404.411,306.531C381.391,306.796 362.438,312.407 347.203,322.996C331.883,333.35 320.79,345.25 313.763,358.49C309.372,365.655 305.986,374.983 303.837,386.535C301.981,397.175 300.987,417.975 300.987,449.058ZM361.4,449.058C361.4,424.53 362.215,407.811 364.04,398.913C365.337,392.061 367.793,386.531 371.684,382.278L372.221,381.642C375.506,377.418 379.856,373.941 385.2,371.121C390.538,368.364 396.906,366.988 404.279,366.77C411.796,366.988 418.338,368.372 423.881,371.105C428.919,373.878 432.979,377.281 436.005,381.407L436.72,382.278C440.647,386.57 443.236,392.141 444.713,398.882C446.418,407.857 447.182,424.577 447.182,449.058C447.182,473.516 446.424,490.105 444.726,498.815C443.243,505.822 440.666,511.524 436.72,515.837L436.005,516.708C433.011,520.792 428.981,524.06 423.99,526.6L423.565,526.83C418.133,529.92 411.69,531.35 404.291,531.35C397.085,531.35 390.863,529.958 385.689,526.909L384.993,526.534C379.732,523.95 375.451,520.626 372.221,516.473L371.684,515.837C367.787,511.578 365.349,505.939 364.08,499.052L364.029,498.793C362.206,490.135 361.4,473.552 361.4,449.058Z" style="fill:rgb(31,91,217);fill-rule:nonzero;"/>
                </g>
                <g transform="matrix(1,0,0,1,-3.48154,-9.58015)">
                    <path d="M534.235,579.029L544.652,589.445L584.053,589.445L594.47,579.029L594.47,488C594.47,488 643.958,488 643.958,488C674.36,487.461 697.169,477.419 712.891,458.63C728.141,440.819 735.673,421.019 735.673,399.316C735.673,383.286 732.57,369.409 726.583,357.636C720.681,345.2 712.93,335.68 703.508,328.93C692.577,320.301 681.712,314.669 671.028,311.864L670.426,311.725C660.261,309.692 649.715,308.67 638.787,308.67C638.787,308.67 544.652,308.67 544.652,308.67L534.235,319.087L534.235,579.029ZM594.47,366.765L640.927,366.765C649.644,366.574 657.117,368.408 663.529,372.462L663.885,372.678C667.468,374.748 670.281,377.551 672.312,381.096C674.487,385.772 675.438,391.501 675.438,398.246C675.438,406.26 672.697,413.525 667.346,420.088C661.75,426.738 653.29,429.708 642.285,429.905C642.263,429.905 594.47,429.905 594.47,429.905L594.47,366.765Z" style="fill:rgb(31,91,217);fill-rule:nonzero;"/>
                </g>
                <g transform="matrix(1,0,0,1,-7.48502,-9.58015)">
                    <path d="M779.987,505.728L765.528,506.923L739.677,536.519L740.737,551.276C770.33,576.677 805.677,589.445 846.827,589.445C879.664,589.053 904.238,581.46 920.953,567.618C938.313,553.242 947.777,532.056 948.523,503.709L948.527,503.435C948.527,482.488 941.951,464.117 928.845,448.304C915.726,432.383 895.639,422.159 868.205,418.412C855.966,416.882 846.396,415.543 839.377,414.375C829.263,412.494 821.736,409.523 817.147,404.652C813.334,400.683 811.283,396.403 811.247,391.6C811.434,382.814 814.149,376.073 820.076,371.649C826.466,366.856 834.48,364.646 844.023,364.626C865.413,365.078 884.993,371.16 902.786,382.877L917.145,380.01L939.074,347.562L936.538,333.281C910.979,314.843 880.932,305.157 846.344,304.394L846.022,304.392C816.076,304.657 793.087,312.875 776.779,328.235C759.599,344.085 750.833,364.882 750.833,390.758C750.833,412.415 757.789,430.775 771.543,445.896C784.598,460.283 803.508,469.826 828.552,473.955C841.204,475.765 852.634,477.364 863.063,478.787C873.254,480.561 880.648,483.85 884.672,489.759C887.146,493.391 888.173,497.919 888.115,503.248C887.727,521.509 873.184,528.821 847.164,529.21C821.21,528.971 798.804,521.193 779.987,505.728Z" style="fill:rgb(31,91,217);fill-rule:nonzero;"/>
                </g>
                <g transform="matrix(1,0,0,1,-19.0554,9.12062)">
                    <path d="M99.584,308.67L99.584,560.328L110.001,570.745L138.065,570.745L138.065,488L159.819,488L159.819,469.299C159.819,469.299 209.306,469.299 209.306,469.299C228.344,468.962 244.404,464.898 257.614,457.291C272.108,439.828 279.268,420.477 279.268,399.316C279.268,383.286 276.165,369.409 270.178,357.636C264.276,345.2 256.525,335.68 247.103,328.93C236.172,320.301 225.307,314.669 214.623,311.864L214.021,311.725C203.856,309.692 193.31,308.67 182.382,308.67L99.584,308.67ZM216.781,410.266C215.432,413.701 213.48,416.973 210.941,420.088C205.345,426.738 196.885,429.708 185.88,429.905C185.858,429.905 138.065,429.905 138.065,429.905L138.065,366.765L159.819,366.765L159.819,348.065L206.275,348.065C214.992,347.873 222.466,349.708 228.877,353.762L229.234,353.977C232.817,356.047 235.629,358.85 237.661,362.395C239.836,367.072 240.787,372.801 240.787,379.545C240.787,387.559 238.046,394.824 232.695,401.387C228.766,406.057 223.424,408.912 216.781,410.266Z" style="fill:rgb(242,242,242);fill-rule:nonzero;"/>
                </g>
                <g transform="matrix(1,0,0,1,-24.0554,9.12062)">
                    <path d="M345.373,322.878C340.601,328.236 336.654,333.879 333.517,339.79C329.125,346.954 325.74,356.282 323.591,367.834C321.734,378.474 320.741,399.274 320.741,430.357C320.741,460.935 321.728,481.603 323.563,492.367C324.652,498.765 326.05,504.065 327.683,508.285L327.839,508.666C329.44,512.359 331.225,516.238 333.195,520.301L333.344,520.597C340.378,534.002 351.553,545.911 367.066,556.137C382.228,566.649 401.114,572.354 423.803,572.881L424.284,572.881C446.997,572.359 465.915,566.757 481.142,556.422C485.746,551.174 489.548,545.626 492.561,539.792C497.5,532.478 501.069,522.899 502.97,510.955C504.571,500.117 505.417,479.524 505.417,449.058C505.417,418.091 504.567,397.368 502.982,386.883C501.062,375.086 497.503,365.635 492.556,358.315C485.76,345.155 474.935,333.315 459.892,322.981C444.561,312.408 425.431,306.796 402.411,306.531C379.476,306.795 360.578,312.366 345.373,322.878ZM438.659,510.288C437.536,512.337 436.228,514.189 434.72,515.837L434.005,516.708C431.011,520.792 426.981,524.06 421.99,526.6L421.565,526.83C416.133,529.92 409.69,531.35 402.291,531.35C395.085,531.35 388.863,529.958 383.689,526.909L382.993,526.534C377.732,523.95 373.451,520.626 370.221,516.473L369.684,515.837C365.787,511.578 363.349,505.939 362.08,499.052L362.029,498.793C360.206,490.135 359.4,473.552 359.4,449.058C359.4,424.53 360.215,407.811 362.04,398.913C363.337,392.061 365.793,386.531 369.684,382.278L370.221,381.642C373.506,377.418 377.856,373.941 383.2,371.121C384.548,370.424 385.963,369.816 387.442,369.292C388.557,367.181 389.882,365.277 391.437,363.578L391.974,362.941C395.26,358.718 399.61,355.24 404.954,352.42C410.292,349.663 416.66,348.288 424.033,348.069C431.55,348.287 438.091,349.672 443.635,352.404C448.672,355.177 452.733,358.58 455.759,362.706L456.474,363.578C460.4,367.87 462.99,373.44 464.467,380.182C466.171,389.157 466.936,405.876 466.936,430.357C466.936,454.815 466.178,471.404 464.48,480.114C462.997,487.121 460.419,492.824 456.474,497.136L455.759,498.008C452.765,502.091 448.735,505.359 443.744,507.9L443.319,508.129C441.84,508.97 440.287,509.688 438.659,510.288Z" style="fill:rgb(242,242,242);fill-rule:nonzero;"/>
                </g>
                <g transform="matrix(1,0,0,1,-25.2353,9.12062)">
                    <path d="M555.989,308.67L555.989,560.328L566.406,570.745L594.47,570.745L594.47,488L616.224,488L616.224,469.299C616.224,469.299 665.711,469.299 665.711,469.299C684.749,468.962 700.809,464.898 714.019,457.291C728.513,439.828 735.673,420.477 735.673,399.316C735.673,383.286 732.57,369.409 726.583,357.636C720.681,345.2 712.93,335.68 703.508,328.93C692.577,320.301 681.712,314.669 671.028,311.864L670.426,311.725C660.261,309.692 649.715,308.67 638.787,308.67L555.989,308.67ZM673.186,410.266C671.837,413.701 669.885,416.973 667.346,420.088C661.75,426.738 653.29,429.708 642.285,429.905C642.263,429.905 594.47,429.905 594.47,429.905L594.47,366.765L616.224,366.765L616.224,348.065L662.681,348.065C671.397,347.873 678.871,349.708 685.283,353.762L685.639,353.977C689.222,356.047 692.034,358.85 694.066,362.395C696.241,367.072 697.192,372.801 697.192,379.545C697.192,387.559 694.451,394.824 689.1,401.387C685.171,406.057 679.829,408.912 673.186,410.266Z" style="fill:rgb(242,242,242);fill-rule:nonzero;"/>
                </g>
                <g transform="matrix(1,0,0,1,-29.2388,9.12062)">
                    <path d="M790.694,317.814C778.691,332.407 772.587,350.464 772.587,372.057C772.587,393.715 779.543,412.074 793.297,427.195C806.352,441.582 825.262,451.125 850.306,455.254C862.958,457.064 874.387,458.663 884.817,460.086C895.008,461.86 902.402,465.149 906.426,471.058C908.9,474.691 909.926,479.219 909.869,484.547C909.586,497.843 901.8,505.334 887.541,508.575C884.59,522.95 870.488,528.861 847.164,529.21C821.21,528.971 798.804,521.193 779.987,505.728L771.368,506.44L761.43,517.818L762.491,532.575C792.084,557.976 827.431,570.745 868.581,570.745C894.903,570.43 915.915,565.489 931.826,556.411C942.262,542.944 947.952,525.428 948.523,503.709L948.527,503.435C948.527,482.488 941.951,464.117 928.845,448.304C915.726,432.383 895.639,422.159 868.205,418.412C855.966,416.882 846.396,415.543 839.377,414.375C829.263,412.494 821.736,409.523 817.147,404.652C813.334,400.683 811.283,396.403 811.247,391.6C811.434,382.814 814.149,376.073 820.076,371.649C824.049,368.669 828.65,366.687 833.856,365.61C835.087,360.309 837.665,356.057 841.829,352.948C848.22,348.156 856.233,345.945 865.777,345.925C887.167,346.378 906.747,352.459 924.539,364.176L928.362,363.413L939.074,347.562L936.538,333.281C910.979,314.843 880.932,305.157 846.344,304.394L846.022,304.392C823.778,304.588 805.373,309.173 790.694,317.814Z" style="fill:rgb(242,242,242);fill-rule:nonzero;"/>
                </g>
            </g>
        </g>
    </g>
</svg>
